<svg version="1.1" id="Layer_1" xmlns="http://www.w3.org/2000/svg" xmlns:xlink="http://www.w3.org/1999/xlink" x="0px" y="0px"
	 width="100%" viewBox="0 0 330 330" enable-background="new 0 0 330 330" xml:space="preserve">
<path fill="#000100" opacity="1.000000" stroke="none" 
	d="
M1.000000,112.000000 
	C1.000000,75.013397 1.000000,38.026794 1.000000,1.020097 
	C110.946762,1.020097 220.893539,1.020097 330.920166,1.020097 
	C330.920166,110.906891 330.920166,220.813858 330.920166,330.860413 
	C221.000122,330.860413 111.000084,330.860413 1.000000,330.860413 
	C1.000000,294.911682 1.000000,258.924500 1.460140,222.372986 
	C50.889999,221.432373 99.871033,221.160553 148.453186,213.806763 
	C185.342590,208.222870 221.184860,199.137848 254.611832,181.915146 
	C276.030731,170.879395 295.683075,157.347321 314.169434,141.308914 
	C312.996887,140.854782 312.276489,140.475189 311.509155,140.292969 
	C271.618317,130.819763 231.264374,123.951897 190.602615,118.813057 
	C127.605667,110.851509 64.301521,111.469200 1.000000,112.000000 
z"/>
<path fill="#FAFAFA" opacity="1.000000" stroke="none" 
	d="
M1.000000,112.468658 
	C64.301521,111.469200 127.605667,110.851509 190.602615,118.813057 
	C231.264374,123.951897 271.618317,130.819763 311.509155,140.292969 
	C312.276489,140.475189 312.996887,140.854782 314.169434,141.308914 
	C295.683075,157.347321 276.030731,170.879395 254.611832,181.915146 
	C221.184860,199.137848 185.342590,208.222870 148.453186,213.806763 
	C99.871033,221.160553 50.889999,221.432373 1.460140,221.904327 
	C1.000000,185.645767 1.000000,149.291550 1.000000,112.468658 
z"/>
</svg>